<?xml version="1.0" encoding="iso-8859-1"?>
<!-- Generator: Adobe Illustrator 19.0.0, SVG Export Plug-In . SVG Version: 6.00 Build 0)  -->
<svg version="1.1" id="Layer_1" xmlns="http://www.w3.org/2000/svg" xmlns:xlink="http://www.w3.org/1999/xlink" x="0px" y="0px"
	 viewBox="0 0 502 502" style="enable-background:new 0 0 502 502;" xml:space="preserve">
<g>
	<g>
		<g>
			<path d="M492,355.5h-22.101l-48.171-202.316c-1.073-4.505-5.098-7.684-9.729-7.684h-56.5v-41H409c5.522,0,10-4.478,10-10v-62
				c0-5.522-4.478-10-10-10H282c-5.522,0-10,4.478-10,10v62c0,5.522,4.478,10,10,10h53.5v41H90c-4.631,0-8.655,3.179-9.729,7.684
				L32.101,355.5H10c-5.522,0-10,4.478-10,10v104c0,5.522,4.478,10,10,10h482c5.522,0,10-4.478,10-10v-104
				C502,359.978,497.522,355.5,492,355.5z M292,84.5v-42h107v42H292z M97.898,165.5h306.203l45.238,190H52.66L97.898,165.5z
				 M482,459.5H20v-84h462V459.5z"/>
			<path d="M344,53.5h-28c-5.522,0-10,4.478-10,10s4.478,10,10,10h28c5.522,0,10-4.478,10-10C354,57.978,349.522,53.5,344,53.5z"/>
			<path d="M251,447.5c15.99,0,29-13.01,29-29s-13.01-29-29-29c-5.522,0-10,4.478-10,10c0,5.522,4.478,10,10,10c4.963,0,9,4.037,9,9
				s-4.037,9-9,9s-9-4.037-9-9c0-5.522-4.478-10-10-10c-5.522,0-10,4.478-10,10C222,434.49,235.01,447.5,251,447.5z"/>
			<path d="M169.703,179.257h-34.379c-13.412,0-24.324,10.912-24.324,24.324s10.912,24.324,24.324,24.324h34.379
				c13.412,0,24.324-10.912,24.324-24.324S183.115,179.257,169.703,179.257z M169.703,207.905h-34.379
				c-2.385,0-4.324-1.939-4.324-4.324s1.939-4.324,4.324-4.324h34.379c2.385,0,4.324,1.939,4.324,4.324
				S172.088,207.905,169.703,207.905z"/>
			<path d="M265.676,179.257h-34.379c-13.412,0-24.324,10.912-24.324,24.324s10.912,24.324,24.324,24.324h34.379
				c13.412,0,24.324-10.912,24.324-24.324S279.088,179.257,265.676,179.257z M265.676,207.905h-34.379
				c-2.385,0-4.324-1.939-4.324-4.324s1.939-4.324,4.324-4.324h34.379c2.385,0,4.324,1.939,4.324,4.324
				S268.061,207.905,265.676,207.905z"/>
			<path d="M169.703,236.554h-34.379c-13.412,0-24.324,10.912-24.324,24.324c0,13.413,10.912,24.325,24.324,24.325h34.379
				c13.412,0,24.324-10.912,24.324-24.325C194.027,247.466,183.115,236.554,169.703,236.554z M169.703,265.203h-34.379
				c-2.385,0-4.324-1.94-4.324-4.325s1.939-4.324,4.324-4.324h34.379c2.385,0,4.324,1.939,4.324,4.324
				S172.088,265.203,169.703,265.203z"/>
			<path d="M265.676,236.554h-34.379c-13.412,0-24.324,10.912-24.324,24.324c0,13.413,10.912,24.325,24.324,24.325h34.379
				c13.412,0,24.324-10.912,24.324-24.325C290,247.466,279.088,236.554,265.676,236.554z M265.676,265.203h-34.379
				c-2.385,0-4.324-1.94-4.324-4.325s1.939-4.324,4.324-4.324h34.379c2.385,0,4.324,1.939,4.324,4.324
				S268.061,265.203,265.676,265.203z"/>
			<path d="M169.703,293.852h-34.379c-13.412,0-24.324,10.912-24.324,24.324c0,13.412,10.912,24.324,24.324,24.324h34.379
				c13.412,0,24.324-10.912,24.324-24.324C194.027,304.764,183.115,293.852,169.703,293.852z M169.703,322.5h-34.379
				c-2.385,0-4.324-1.939-4.324-4.324s1.939-4.324,4.324-4.324h34.379c2.385,0,4.324,1.939,4.324,4.324S172.088,322.5,169.703,322.5
				z"/>
			<path d="M265.676,293.852h-34.379c-13.412,0-24.324,10.912-24.324,24.324c0,13.412,10.912,24.324,24.324,24.324h34.379
				c13.412,0,24.324-10.912,24.324-24.324C290,304.764,279.088,293.852,265.676,293.852z M265.676,322.5h-34.379
				c-2.385,0-4.324-1.939-4.324-4.324s1.939-4.324,4.324-4.324h34.379c2.385,0,4.324,1.939,4.324,4.324S268.061,322.5,265.676,322.5
				z"/>
			<path d="M376,179.5h-60c-5.522,0-10,4.478-10,10v143c0,5.522,4.478,10,10,10h60c5.522,0,10-4.478,10-10v-143
				C386,183.978,381.522,179.5,376,179.5z M366,322.5h-40v-123h40V322.5z"/>
			<path d="M375,53.5h-3c-5.522,0-10,4.478-10,10s4.478,10,10,10h3c5.522,0,10-4.478,10-10C385,57.978,380.522,53.5,375,53.5z"/>
			<path d="M48,445.5h81c5.522,0,10-4.478,10-10c0-5.522-4.478-10-10-10H48c-5.522,0-10,4.478-10,10
				C38,441.022,42.478,445.5,48,445.5z"/>
			<path d="M168,445.5h26c5.522,0,10-4.478,10-10c0-5.522-4.478-10-10-10h-26c-5.522,0-10,4.478-10,10
				C158,441.022,162.478,445.5,168,445.5z"/>
		</g>
	</g>
</g>
<g>
</g>
<g>
</g>
<g>
</g>
<g>
</g>
<g>
</g>
<g>
</g>
<g>
</g>
<g>
</g>
<g>
</g>
<g>
</g>
<g>
</g>
<g>
</g>
<g>
</g>
<g>
</g>
<g>
</g>
</svg>
